<mxfile host="app.diagrams.net" modified="2023-05-24T22:32:46.131Z" agent="Mozilla/5.0 (Windows NT 10.0; Win64; x64) AppleWebKit/537.36 (KHTML, like Gecko) Chrome/113.0.0.0 Safari/537.36" version="21.3.3" etag="biDE1-gXsj2jD-SYV4iN" type="github">
  <diagram name="PÃ¡gina-1" id="ra33QlV5d5UBFIAc4I0K">
    <mxGraphModel>
      <root>
        <mxCell id="0" />
        <mxCell id="1" parent="0" />
      </root>
    </mxGraphModel>
  </diagram>
</mxfile>
